<?xml version="1.0" encoding="UTF-8" standalone="no"?>

<svg
   xmlns="http://www.w3.org/2000/svg"
   version="1.1"
   viewBox="0 0 470 446"
   width="470"
   height="446">
  <g>
    <g>
      <path d="M 232 254 L 350 312 L 350 446 L 232 388 L 232 254 Z" stroke="#000000" stroke-width="2" fill="#000000" stroke-miterlimit="1"></path>
      <path d="M 350 312 L 350 446 L 468 388 L 468 254 L 350 312 Z" stroke="#000000" stroke-width="2" fill="#FFFFFF" stroke-miterlimit="1"></path>
      <path d="M 232 254 L 350 196 L 468 254 L 350 312 L 232 254 Z" stroke="#000000" stroke-width="2" fill="#666666" stroke-miterlimit="1"></path>
      <path d="M 116 62 L 232 120 L 232 254 L 116 196 L 116 62 Z" stroke="#000000" stroke-width="2" fill="#000000" stroke-miterlimit="1"></path>
      <path d="M 232 120 L 232 254 L 350 196 L 350 62 L 232 120 Z" stroke="#000000" stroke-width="2" fill="#FFFFFF" stroke-miterlimit="1"></path>
      <path d="M 116 62 L 232 2 L 350 62 L 232 120 L 116 62 Z" stroke="#000000" stroke-width="2" fill="#666666" stroke-miterlimit="1"></path>
      <path d="M 2 254 L 116 312 L 116 446 L 2 388 L 2 254 Z" stroke="#000000" stroke-width="2" fill="#000000" stroke-miterlimit="1"></path>
      <path d="M 116 312 L 116 446 L 232 388 L 232 254 L 116 312 Z" stroke="#000000" stroke-width="2" fill="#FFFFFF" stroke-miterlimit="1"></path>
      <path d="M 2 254 L 116 196 L 232 254 L 116 312 L 2 254 Z" stroke="#000000" stroke-width="2" fill="#666666" stroke-miterlimit="1"></path>
    </g>
  </g>
</svg>
